<svg xmlns="http://www.w3.org/2000/svg" xmlns:xlink="http://www.w3.org/1999/xlink" version="1.1" id="Capa_1" x="0px" y="0px" viewBox="0 0 512 512" style="enable-background:new 0 0 512 512;" xml:space="preserve" width="60" height="60">
                                    <g>
                                        <g>
                                            <g>
                                                <path d="M164.51,451c-12.93,0.325-14.891-19.569-2.149-21.78C177.925,426.442,180.305,450.701,164.51,451z"/>
                                            </g>
                                            <g>
                                                <path d="M370.288,474.23l-197.185,15.805c-6.056,0.485-10.571,5.788-10.086,11.844c0.461,5.757,5.276,10.122,10.953,10.122     c0.294,0,0.592-0.012,0.891-0.036l204.072-16.357c6.056-0.485,10.571-5.788,10.086-11.844     C388.533,477.708,376.348,473.747,370.288,474.23z"/>
                                                <path d="M499.896,347.278c-11.308-11.303-27.831-14.765-42.328-9.941c-0.175-9.105-3.31-17.845-9.091-25.055     c-14.266-17.802-40.326-20.727-58.182-6.57l-111.532,83.294l-41.182-8.057l12.888-13.478     c16.085-16.188,16.054-42.445-0.093-58.597c-7.835-7.835-18.255-12.15-29.34-12.15c-11.086,0-21.505,4.315-29.34,12.15     c-0.044,0.044-0.087,0.088-0.131,0.133l-73.623,76.169c-0.08,0.082-0.147,0.172-0.223,0.256H11.001c-6.075,0-11,4.925-11,11     v87.143c0,6.075,4.925,11,11,11H121.82c6.075,0,3.748-5.18,3.748-11.255s2.327-10.745-3.748-10.745H22.001v-65.143h99.819     c3.805,0,3.516-4.946,5.491-7.883c1.015-0.532,8.541-1.249,9.381-2.118l70.618-73.06c7.605-7.542,19.927-7.522,27.507,0.058     c7.602,7.604,7.602,19.976,0,27.58c-0.058,0.058-0.115,0.116-0.171,0.176l-22.708,23.748l-32.034-6.267     c-5.957-1.165-11.741,2.721-12.907,8.683c-1.167,5.962,5.093,5.625,11.056,6.792l34.247,13.28     c0.848,0.271,1.719,0.448,2.598,0.508l62.587,12.244c1.1,0.403,2.254,0.629,3.422,0.669c0,0,81.916,16.026,81.972,16.037     c2.533,0.496,3.676-2.315,5.927-3.57c0.403-0.225,2.363,1.888,2.734,1.613l87.126-64.559c0.06-0.044,0.12-0.09,0.179-0.136     c7.681-5.936,18.642-5.245,25.497,1.607c3.936,3.937,5.936,9.166,5.629,14.725c-0.306,5.563-2.87,10.545-7.219,14.029     c-0.079,0.063-0.157,0.127-0.234,0.192L397.986,464.1c-4.635,3.927-12.043,15.958-8.116,20.593     c2.176,2.568,5.276,3.89,8.398,3.89c2.512,0,5.039-0.856,7.105-2.607l91.26-77.319c9.086-7.338,14.661-18.221,15.304-29.887     C512.583,367.054,508.194,355.576,499.896,347.278z M403.595,323.237c0.099-0.074,0.197-0.149,0.293-0.227     c8.396-6.721,20.696-5.362,27.423,3.031c3.249,4.053,4.724,9.139,4.152,14.322c-0.57,5.167-3.103,9.796-7.135,13.039     l-66.172,51.917l-54.259-10.615L403.595,323.237z"/>
                                            </g>
                                            <g>
                                                <path style="fill:#dd6a13;" d="M164.507,512c-39.699,0-71.996-32.297-71.996-71.996c0-39.699,32.297-71.996,71.996-71.996     c39.699,0,71.996,32.297,71.996,71.996C236.503,479.703,204.206,512,164.507,512z M164.507,390.008     c-27.568,0-49.996,22.428-49.996,49.996c0,27.568,22.428,49.996,49.996,49.996c27.568,0,49.996-22.428,49.996-49.996     C214.503,412.436,192.075,390.008,164.507,390.008z"/>
                                            </g>
                                            <g>
                                                <path style="fill:#dd6a13;" d="M377.22,495.643c-25.3,0-45.883-20.583-45.883-45.883c0-25.3,20.583-45.883,45.883-45.883     c25.3,0,45.883,20.583,45.883,45.883C423.103,475.06,402.52,495.643,377.22,495.643z M377.22,425.877     c-13.169,0-23.883,10.714-23.883,23.883c0,13.169,10.714,23.883,23.883,23.883c13.169,0,23.883-10.714,23.883-23.883     C401.103,436.591,390.389,425.877,377.22,425.877z"/>
                                            </g>
                                        </g>
                                        <g>
                                            <g>
                                                <path style="fill:#dd6a13;" d="M320.993,267h-50.69c-5.115,0-9.555-3.526-10.714-8.508l-5.651-24.297l-21.176,13.185     c-4.341,2.704-9.974,2.058-13.592-1.56l-35.843-35.843c-3.617-3.617-4.263-9.25-1.559-13.592l13.184-21.176l-24.296-5.65     c-4.982-1.159-8.508-5.599-8.508-10.714v-50.69c0-5.115,3.526-9.555,8.508-10.714l24.296-5.65l-13.184-21.176     c-2.704-4.342-2.057-9.975,1.559-13.592l35.843-35.843c3.616-3.617,9.249-4.264,13.592-1.56l21.176,13.185l5.651-24.297     C260.748,3.526,265.188,0,270.303,0h50.69c5.115,0,9.555,3.526,10.714,8.508l5.651,24.296l21.175-13.185     c4.342-2.704,9.975-2.057,13.592,1.56l35.843,35.843c3.617,3.617,4.263,9.25,1.56,13.592l-13.185,21.176l24.297,5.65     c4.982,1.159,8.508,5.599,8.508,10.714v50.69c0,5.115-3.526,9.555-8.508,10.714l-24.297,5.65l13.185,21.176     c2.704,4.342,2.057,9.975-1.56,13.592l-35.843,35.843c-3.618,3.617-9.251,4.263-13.592,1.56l-21.175-13.185l-5.651,24.296     C330.548,263.474,326.108,267,320.993,267z M279.039,245h33.219l5.671-24.383c0.839-3.607,3.437-6.55,6.912-7.83     c2.061-0.759,4.153-1.628,6.215-2.582c3.363-1.556,7.285-1.313,10.431,0.646l21.259,13.237l23.489-23.489l-13.237-21.259     c-1.959-3.146-2.202-7.068-0.646-10.432c0.955-2.064,1.823-4.155,2.581-6.214c1.28-3.476,4.223-6.074,7.831-6.913l24.384-5.671     v-33.219l-24.384-5.671c-3.607-0.839-6.551-3.437-7.831-6.913c-0.758-2.059-1.627-4.15-2.581-6.214     c-1.556-3.364-1.313-7.285,0.646-10.432l13.237-21.259l-23.489-23.489L341.486,56.15c-3.146,1.959-7.068,2.202-10.431,0.646     c-2.063-0.954-4.154-1.823-6.216-2.582c-3.475-1.28-6.073-4.223-6.912-7.83L312.257,22h-33.219l-5.671,24.384     c-0.839,3.607-3.436,6.55-6.912,7.83c-2.062,0.759-4.153,1.628-6.216,2.582c-3.363,1.555-7.285,1.313-10.431-0.646L228.55,42.913     l-23.489,23.489l13.236,21.259c1.959,3.146,2.202,7.067,0.646,10.431c-0.953,2.06-1.821,4.151-2.582,6.216     c-1.28,3.475-4.223,6.072-7.83,6.911l-24.383,5.671v33.219l24.383,5.671c3.607,0.839,6.55,3.436,7.83,6.911     c0.761,2.065,1.629,4.157,2.582,6.216c1.556,3.364,1.313,7.285-0.646,10.431l-13.236,21.259l23.489,23.489l21.259-13.237     c3.145-1.959,7.067-2.202,10.431-0.646c2.062,0.953,4.153,1.822,6.215,2.581c3.476,1.28,6.074,4.223,6.913,7.831L279.039,245z      M418.148,158.845h0.01H418.148z"/>
                                            </g>
                                            <g>
                                                <path style="fill:#dd6a13;" d="M295.648,180.231c-25.768,0-46.731-20.963-46.731-46.731s20.963-46.731,46.731-46.731     c25.767,0,46.73,20.963,46.73,46.731S321.415,180.231,295.648,180.231z M295.648,108.769c-13.637,0-24.731,11.094-24.731,24.731     s11.094,24.731,24.731,24.731c13.636,0,24.73-11.094,24.73-24.731S309.284,108.769,295.648,108.769z"/>
                                            </g>
                                        </g>
                                    </g>                        
                                </svg>