<svg xmlns="http://www.w3.org/2000/svg" version="1.1" xmlns:xlink="http://www.w3.org/1999/xlink" width="60" height="60" x="0" y="0" viewBox="0 0 512 512" style="enable-background:new 0 0 512 512" xml:space="preserve" class=""><g><path d="M98.854 337.377c-37.794 0-68.542 30.748-68.542 68.542s30.748 68.542 68.542 68.542c37.795 0 68.543-30.748 68.543-68.542s-30.748-68.542-68.543-68.542zm0 123.084c-30.074 0-54.542-24.468-54.542-54.542s24.468-54.542 54.542-54.542c30.075 0 54.543 24.468 54.543 54.542s-24.467 54.542-54.543 54.542zm34.793-78.36a6.998 6.998 0 0 1 0 9.898l-37.738 37.738a6.998 6.998 0 0 1-9.899 0l-21.949-21.95a7 7 0 0 1 9.9-9.898l16.999 17 32.789-32.788a6.998 6.998 0 0 1 9.898 0zm279.499-207.478c37.794 0 68.542-30.748 68.542-68.542s-30.748-68.542-68.542-68.542c-37.795 0-68.543 30.748-68.543 68.542s30.748 68.542 68.543 68.542zm0-123.084c30.074 0 54.542 24.467 54.542 54.542s-24.468 54.542-54.542 54.542c-30.075 0-54.543-24.467-54.543-54.542s24.467-54.542 54.543-54.542zm-32.644 31.797a7 7 0 0 1 9.898-9.899l22.745 22.745 22.744-22.745a7 7 0 0 1 9.899 9.899l-22.744 22.745 22.744 22.744a6.999 6.999 0 0 1-4.949 11.949 6.977 6.977 0 0 1-4.949-2.05l-22.744-22.744-22.743 22.744c-1.367 1.367-3.159 2.05-4.95 2.05s-3.583-.684-4.949-2.05a6.999 6.999 0 0 1 0-9.899l22.743-22.744zM212.587 261.647h-21.111a7 7 0 0 0-7 7v51.308a7 7 0 0 0 7 7h21.111a7 7 0 0 0 7-7v-51.308a7 7 0 0 0-7-7zm-7 51.308h-7.111v-37.308h7.111zm48.241-91.407h-21.112a7 7 0 0 0-7 7v91.406a7 7 0 0 0 7 7h21.112a7 7 0 0 0 7-7v-91.406a7 7 0 0 0-7-7zm-7 91.407h-7.112v-77.406h7.112zm48.24-67.206h-21.111a7 7 0 0 0-7 7v67.206a7 7 0 0 0 7 7h21.111a7 7 0 0 0 7-7v-67.206a7 7 0 0 0-7-7zm-7 67.206h-7.111v-53.206h7.111zm48.242-125.173h-21.112a7 7 0 0 0-7 7v125.173a7 7 0 0 0 7 7h21.112a7 7 0 0 0 7-7V194.782a7 7 0 0 0-7-7zm-7 125.173h-7.112V201.782h7.112zM504.5 200.498l-38.93-22.476a7.004 7.004 0 0 0-9.563 2.562l-22.476 38.93a7 7 0 0 0 12.124 7l14.446-25.023c4.721 17.71 7.111 36.009 7.111 54.509 0 45.062-13.945 87.927-40.348 124.172l-53.357-53.357c13.091-20.573 20.104-44.471 20.104-69.446 0-34.65-13.493-67.226-37.995-91.727-50.578-50.577-132.874-50.576-183.452 0-24.502 24.501-37.995 57.077-37.995 91.727 0 34.649 13.493 67.226 37.995 91.726 25.292 25.293 58.503 37.938 91.727 37.934 24.153-.002 48.311-6.697 69.418-20.07l54.258 54.258c-37.214 29.668-83.875 45.999-131.569 45.999-27.272 0-53.824-5.131-78.916-15.25a7 7 0 0 0-5.236 12.984c26.765 10.793 55.077 16.266 84.152 16.266 51.368 0 101.62-17.759 141.501-50.006l.034-.028 35.652 35.653c5.537 5.538 12.812 8.307 20.086 8.307 7.273 0 14.548-2.769 20.085-8.307 11.076-11.075 11.076-29.096 0-40.171l-36.477-36.477c29.002-39.026 44.333-85.401 44.333-134.187 0-19.33-2.457-38.456-7.296-56.993l23.581 13.615c3.35 1.935 7.63.786 9.562-2.562a7 7 0 0 0-2.559-9.562zM182.064 339.195c-21.856-21.856-33.894-50.916-33.894-81.826 0-30.911 12.037-59.971 33.894-81.828 45.121-45.119 118.534-45.12 163.655 0 21.856 21.857 33.894 50.917 33.894 81.828 0 30.91-12.037 59.97-33.894 81.827-45.121 45.12-118.534 45.119-163.655-.001zm281.396 97.367c5.616 5.617 5.616 14.757 0 20.374-5.615 5.615-14.755 5.616-20.374 0l-98.224-98.224a130.483 130.483 0 0 0 10.756-9.618 132.084 132.084 0 0 0 9.625-10.749zM46.43 333.978 7.5 311.502a7 7 0 0 1 7-12.124l23.58 13.614c-4.84-18.537-7.294-37.653-7.294-56.992 0-60.157 23.427-116.713 65.964-159.251C139.287 54.211 195.843 30.785 256 30.785c29.071 0 57.384 5.473 84.152 16.267a7 7 0 0 1-5.236 12.984c-25.096-10.12-51.647-15.25-78.916-15.25-116.464 0-211.215 94.75-211.215 211.215 0 18.505 2.398 36.788 7.119 54.496l14.439-25.01a7 7 0 0 1 12.124 7l-22.476 38.93a7.01 7.01 0 0 1-6.063 3.5 6.996 6.996 0 0 1-3.498-.939z" fill="#ffffff" opacity="1" data-original="#000000"></path></g>
                                </svg>