<svg xmlns="http://www.w3.org/2000/svg" version="1.1" xmlns:xlink="http://www.w3.org/1999/xlink" width="60" height="60" x="0" y="0" viewBox="0 0 416.304 416.304" style="enable-background:new 0 0 512 512" xml:space="preserve" class=""><g><path d="M348.753 261.696c-.64-.64-1.328-1.2-2.064-1.632a63.843 63.843 0 0 0-34.016-9.824c-16.368 0-32.72 6.24-45.2 18.72l-11.328 11.312v-152.24c0-17.6-14.4-32-32-32s-32 14.4-32 32v70.4c-5.84-7.168-14.64-11.84-24.608-11.84-6.928 0-13.312 2.272-18.544 6.032l-68.912 39.888c-9.52 5.568-15.936 15.792-15.936 27.584v52.624c0 57.216 46.368 103.584 103.584 103.584 27.712 0 52.816-10.944 71.392-28.672l.016.144 1.776-1.776.08-.08 107.744-107.76a11.632 11.632 0 0 0 .016-16.464zM228.081 376.032c-16.4 15.632-37.84 24.24-60.352 24.24-48.288.032-87.584-39.28-87.584-87.568V260.08c0-5.632 2.992-10.736 8.016-13.664l70.144-40.784c1.92-1.376 5.088-3.04 9.216-3.04 6.4 0 10.4 3.728 12.224 5.952l28.4 34.784V128.032c0-8.816 7.184-16 16-16 8.816 0 16 7.184 16 16v159.952c0 6.832 4.32 12.56 10.352 14.816a6.91 6.91 0 0 0 7.328-1.584l20.944-20.944c9.056-9.056 21.088-14.032 33.888-14.032 7.216 0 14.272 1.6 20.704 4.672l-105.28 105.12zM216.145 0h16v64h-16zM127.972 43.135l11.313-11.313 45.254 45.253-11.314 11.314zM96.145 120h64v16h-64zM263.725 77.098l45.253-45.254 11.314 11.313-45.254 45.254zM288.145 120h64v16h-64z" fill="#ffffff" opacity="1" data-original="#000000" class=""></path></g>
                                </svg>