<svg xmlns="http://www.w3.org/2000/svg" xmlns:xlink="http://www.w3.org/1999/xlink" version="1.1" id="Capa_1" x="0px" y="0px" viewBox="0 0 512 512" style="enable-background:new 0 0 512 512;" xml:space="preserve" width="60" height="60">
                                    <g>
                                        <g>
                                            <path style="fill:#dd6a13;" d="M347.494,512c-1.523,0-3.045-0.316-4.468-0.948C283.478,484.585,245,425.377,245,360.213v-62.532    c0-4.347,2.56-8.287,6.533-10.052c63.675-28.301,128.248-28.301,191.923,0c3.972,1.765,6.532,5.705,6.532,10.052v62.532    c0,65.165-38.478,124.373-98.026,150.839C350.539,511.684,349.017,512,347.494,512z M267,304.94v55.273    c0,54.832,31.435,104.799,80.494,128.657c49.06-23.858,80.494-73.825,80.494-128.657V304.94    C374.536,282.996,320.452,282.996,267,304.94z"/>
                                        </g>
                                        <g>
                                            <path style="fill:#dd6a13;" d="M336.711,421.74c-2.917,0-5.715-1.159-7.778-3.222l-21.565-21.565    c-4.296-4.295-4.295-11.26,0-15.556c4.295-4.296,11.26-4.296,15.556,0l13.787,13.787l35.353-35.353    c4.296-4.296,11.261-4.296,15.557,0c4.295,4.296,4.295,11.261,0,15.557l-43.131,43.131    C342.426,420.581,339.628,421.74,336.711,421.74z"/>
                                        </g>
                                        <g>
                                            <path d="M501,30.498H174.027L163.375,6.533C161.61,2.56,157.671,0,153.324,0H11C4.925,0,0,4.925,0,11v345.643    c0,22.882,18.616,41.498,41.498,41.498h207.948c-1.702-7.195-2.927-14.541-3.651-22H41.498c-10.751,0-19.498-8.747-19.498-19.498    V22h124.175l37.761,84.961c1.765,3.972,5.705,6.532,10.052,6.532H490v243.149c0,10.751-8.747,19.498-19.498,19.498h-21.31    c-0.723,7.459-1.948,14.805-3.651,22h24.96c22.882,0,41.498-18.616,41.498-41.498V102.494V41.498    C512,35.423,507.075,30.498,501,30.498z M201.136,91.494l-17.332-38.996H490v38.996H201.136z"/>
                                            <path d="M174.672,315.145H73.012c-6.075,0-11,4.925-11,11s4.925,11,11,11h101.66c6.075,0,11-4.925,11-11    S180.748,315.145,174.672,315.145z"/>
                                            <path d="M174.672,254.149H73.012c-6.075,0-11,4.925-11,11s4.925,11,11,11h101.66c6.075,0,11-4.925,11-11    S180.748,254.149,174.672,254.149z"/>
                                        </g>
                                    </g>
                                </svg>