<svg xmlns="http://www.w3.org/2000/svg" xmlns:xlink="http://www.w3.org/1999/xlink" version="1.1" id="Capa_1" x="0px" y="0px" viewBox="0 0 512 512" style="enable-background:new 0 0 512 512;" xml:space="preserve" width="60" height="60">
                                    <g>
                                        <path d="M409.558,346.011h-52.462v-22h52.462c44.357,0,80.442-36.065,80.442-80.396c0-44.232-35.986-80.219-80.22-80.219   c-15.348,0-30.261,4.346-43.127,12.567c-3.414,2.183-7.753,2.311-11.288,0.333c-3.538-1.977-5.702-5.737-5.633-9.789l0.006-0.345   c0.008-0.458,0.017-0.915,0.017-1.375c0-53.361-43.412-96.773-96.774-96.773c-52.569,0-95.973,42.754-96.754,95.306   c-0.057,3.838-2.11,7.369-5.418,9.316c-3.308,1.946-7.392,2.028-10.775,0.217c-11.549-6.186-24.626-9.457-37.815-9.457   c-44.233,0-80.22,35.986-80.22,80.219c0,44.33,36.114,80.396,80.505,80.396h48.433v22h-48.433C45.984,346.011,0,300.076,0,243.615   c0-56.363,45.855-102.219,102.22-102.219c11.352,0,22.645,1.905,33.319,5.575c3.781-25.252,15.568-48.524,34.053-66.756   c22.362-22.055,51.977-34.201,83.389-34.201c60.184,0,110.057,44.997,117.745,103.114c12.308-5.089,25.551-7.732,39.054-7.732   c56.364,0,102.22,45.855,102.22,102.219C512,300.076,466.045,346.011,409.558,346.011z"/>
                                        <path style="fill:#dd6a13;" d="M256.048,465.985c-2.336,0-4.671-0.741-6.633-2.225l-70.928-53.615   c-22.624-17.103-34.582-45.21-34.582-81.283v-81.946c0-4.321,2.53-8.242,6.468-10.023l101.096-45.711   c2.881-1.302,6.184-1.303,9.066,0.001l101.095,45.726c3.936,1.78,6.467,5.701,6.467,10.022v81.959   c0,36.053-11.945,64.148-34.544,81.246l-70.866,53.621C260.722,465.242,258.385,465.985,256.048,465.985z M165.905,254.015v74.848   c0,29.324,8.697,50.767,25.849,63.732l64.291,48.599l64.232-48.601c17.133-12.963,25.819-34.396,25.819-63.703v-74.861   l-90.096-40.751L165.905,254.015z"/>
                                        <path style="fill:#dd6a13;" d="M249.62,355.256c-2.917,0-5.715-1.159-7.778-3.222l-20.756-20.757   c-4.296-4.296-4.295-11.261,0-15.557c4.296-4.296,11.26-4.295,15.557,0l12.978,12.978l35.592-35.592   c4.297-4.295,11.26-4.295,15.557,0c4.296,4.296,4.296,11.261,0,15.557l-43.37,43.37   C255.335,354.097,252.538,355.256,249.62,355.256z"/>
                                    </g>
                                </svg>